<svg width="103" height="94" viewBox="0 0 103 94" fill="none" xmlns="http://www.w3.org/2000/svg">
<path d="M9.95504 88.295C9.18037 88.295 8.46637 88.1736 7.81304 87.931C7.16904 87.679 6.60437 87.3243 6.11904 86.867C5.64304 86.4096 5.2697 85.873 4.99904 85.257C4.7377 84.641 4.60704 83.9643 4.60704 83.227C4.60704 82.4896 4.7377 81.813 4.99904 81.197C5.2697 80.581 5.6477 80.0443 6.13304 79.587C6.61837 79.1296 7.1877 78.7796 7.84104 78.537C8.49437 78.285 9.21304 78.159 9.99704 78.159C10.865 78.159 11.6444 78.3036 12.335 78.593C13.035 78.8823 13.623 79.3023 14.099 79.853L12.643 81.197C12.2884 80.8236 11.901 80.5483 11.481 80.371C11.061 80.1843 10.6037 80.091 10.109 80.091C9.63304 80.091 9.19904 80.1656 8.80704 80.315C8.41504 80.4643 8.07437 80.679 7.78504 80.959C7.50504 81.239 7.2857 81.5703 7.12704 81.953C6.9777 82.3356 6.90304 82.7603 6.90304 83.227C6.90304 83.6843 6.9777 84.1043 7.12704 84.487C7.2857 84.8696 7.50504 85.2056 7.78504 85.495C8.07437 85.775 8.41037 85.9896 8.79304 86.139C9.18504 86.2883 9.61437 86.363 10.081 86.363C10.529 86.363 10.963 86.293 11.383 86.153C11.8124 86.0036 12.2277 85.7563 12.629 85.411L13.917 87.049C13.385 87.4503 12.7644 87.7583 12.055 87.973C11.355 88.1876 10.655 88.295 9.95504 88.295ZM11.845 86.755V83.073H13.917V87.049L11.845 86.755ZM15.8698 88.127V80.595H17.9558V82.723L17.6618 82.107C17.8858 81.575 18.2451 81.1736 18.7398 80.903C19.2345 80.623 19.8365 80.483 20.5458 80.483V82.499C20.4525 82.4896 20.3685 82.485 20.2938 82.485C20.2192 82.4756 20.1398 82.471 20.0558 82.471C19.4585 82.471 18.9731 82.6436 18.5998 82.989C18.2358 83.325 18.0538 83.8523 18.0538 84.571V88.127H15.8698ZM25.5277 88.239C24.6691 88.239 23.9131 88.071 23.2597 87.735C22.6157 87.399 22.1164 86.9416 21.7617 86.363C21.4071 85.775 21.2297 85.1076 21.2297 84.361C21.2297 83.605 21.4024 82.9376 21.7477 82.359C22.1024 81.771 22.5831 81.3136 23.1897 80.987C23.7964 80.651 24.4824 80.483 25.2477 80.483C25.9851 80.483 26.6477 80.6416 27.2357 80.959C27.8331 81.267 28.3044 81.715 28.6497 82.303C28.9951 82.8816 29.1677 83.577 29.1677 84.389C29.1677 84.473 29.1631 84.571 29.1537 84.683C29.1444 84.7856 29.1351 84.8836 29.1257 84.977H23.0077V83.703H27.9777L27.1377 84.081C27.1377 83.689 27.0584 83.3483 26.8997 83.059C26.7411 82.7696 26.5217 82.5456 26.2417 82.387C25.9617 82.219 25.6351 82.135 25.2617 82.135C24.8884 82.135 24.5571 82.219 24.2677 82.387C23.9877 82.5456 23.7684 82.7743 23.6097 83.073C23.4511 83.3623 23.3717 83.7076 23.3717 84.109V84.445C23.3717 84.8556 23.4604 85.2196 23.6377 85.537C23.8244 85.845 24.0811 86.083 24.4077 86.251C24.7437 86.4096 25.1357 86.489 25.5837 86.489C25.9851 86.489 26.3351 86.4283 26.6337 86.307C26.9417 86.1856 27.2217 86.0036 27.4737 85.761L28.6357 87.021C28.2904 87.413 27.8564 87.7163 27.3337 87.931C26.8111 88.1363 26.2091 88.239 25.5277 88.239ZM34.3598 88.239C33.5011 88.239 32.7451 88.071 32.0918 87.735C31.4478 87.399 30.9484 86.9416 30.5938 86.363C30.2391 85.775 30.0618 85.1076 30.0618 84.361C30.0618 83.605 30.2344 82.9376 30.5798 82.359C30.9344 81.771 31.4151 81.3136 32.0218 80.987C32.6284 80.651 33.3144 80.483 34.0798 80.483C34.8171 80.483 35.4798 80.6416 36.0678 80.959C36.6651 81.267 37.1364 81.715 37.4818 82.303C37.8271 82.8816 37.9998 83.577 37.9998 84.389C37.9998 84.473 37.9951 84.571 37.9858 84.683C37.9764 84.7856 37.9671 84.8836 37.9578 84.977H31.8398V83.703H36.8098L35.9698 84.081C35.9698 83.689 35.8904 83.3483 35.7318 83.059C35.5731 82.7696 35.3538 82.5456 35.0738 82.387C34.7938 82.219 34.4671 82.135 34.0938 82.135C33.7204 82.135 33.3891 82.219 33.0998 82.387C32.8198 82.5456 32.6004 82.7743 32.4418 83.073C32.2831 83.3623 32.2038 83.7076 32.2038 84.109V84.445C32.2038 84.8556 32.2924 85.2196 32.4698 85.537C32.6564 85.845 32.9131 86.083 33.2398 86.251C33.5758 86.4096 33.9678 86.489 34.4158 86.489C34.8171 86.489 35.1671 86.4283 35.4658 86.307C35.7738 86.1856 36.0538 86.0036 36.3058 85.761L37.4678 87.021C37.1224 87.413 36.6884 87.7163 36.1658 87.931C35.6431 88.1363 35.0411 88.239 34.3598 88.239ZM44.0318 80.483C44.6291 80.483 45.1611 80.6043 45.6278 80.847C46.1038 81.0803 46.4771 81.4443 46.7478 81.939C47.0185 82.4243 47.1538 83.0496 47.1538 83.815V88.127H44.9698V84.151C44.9698 83.5443 44.8345 83.0963 44.5638 82.807C44.3025 82.5176 43.9291 82.373 43.4438 82.373C43.0985 82.373 42.7858 82.4476 42.5058 82.597C42.2351 82.737 42.0205 82.9563 41.8618 83.255C41.7125 83.5536 41.6378 83.9363 41.6378 84.403V88.127H39.4538V80.595H41.5398V82.681L41.1478 82.051C41.4185 81.547 41.8058 81.1596 42.3098 80.889C42.8138 80.6183 43.3878 80.483 44.0318 80.483ZM55.1423 88.127L51.9783 80.595H54.2323L56.8643 87.077H55.7443L58.4743 80.595H60.5743L57.3963 88.127H55.1423ZM65.8394 88.127V86.657L65.6994 86.335V83.703C65.6994 83.2363 65.5548 82.8723 65.2654 82.611C64.9854 82.3496 64.5514 82.219 63.9634 82.219C63.5621 82.219 63.1654 82.2843 62.7734 82.415C62.3908 82.5363 62.0641 82.7043 61.7934 82.919L61.0094 81.393C61.4201 81.1036 61.9148 80.8796 62.4934 80.721C63.0721 80.5623 63.6601 80.483 64.2574 80.483C65.4054 80.483 66.2968 80.7536 66.9314 81.295C67.5661 81.8363 67.8834 82.681 67.8834 83.829V88.127H65.8394ZM63.5434 88.239C62.9554 88.239 62.4514 88.141 62.0314 87.945C61.6114 87.7396 61.2894 87.4643 61.0654 87.119C60.8414 86.7736 60.7294 86.3863 60.7294 85.957C60.7294 85.509 60.8368 85.117 61.0514 84.781C61.2754 84.445 61.6254 84.1836 62.1014 83.997C62.5774 83.801 63.1981 83.703 63.9634 83.703H65.9654V84.977H64.2014C63.6881 84.977 63.3334 85.061 63.1374 85.229C62.9508 85.397 62.8574 85.607 62.8574 85.859C62.8574 86.139 62.9648 86.363 63.1794 86.531C63.4034 86.6896 63.7068 86.769 64.0894 86.769C64.4534 86.769 64.7801 86.685 65.0694 86.517C65.3588 86.3396 65.5688 86.083 65.6994 85.747L66.0354 86.755C65.8768 87.2403 65.5874 87.609 65.1674 87.861C64.7474 88.113 64.2061 88.239 63.5434 88.239ZM69.8601 88.127V77.739H72.0441V88.127H69.8601ZM77.249 88.239C76.6237 88.239 76.0637 88.1176 75.569 87.875C75.0837 87.6323 74.7057 87.2636 74.435 86.769C74.1643 86.265 74.029 85.6256 74.029 84.851V80.595H76.213V84.529C76.213 85.1543 76.3437 85.6163 76.605 85.915C76.8757 86.2043 77.2537 86.349 77.739 86.349C78.075 86.349 78.3737 86.279 78.635 86.139C78.8963 85.9896 79.1017 85.7656 79.251 85.467C79.4003 85.159 79.475 84.7763 79.475 84.319V80.595H81.659V88.127H79.587V86.055L79.965 86.657C79.713 87.1796 79.3397 87.5763 78.845 87.847C78.3597 88.1083 77.8277 88.239 77.249 88.239ZM87.4203 88.239C86.5616 88.239 85.8056 88.071 85.1523 87.735C84.5083 87.399 84.009 86.9416 83.6543 86.363C83.2996 85.775 83.1223 85.1076 83.1223 84.361C83.1223 83.605 83.295 82.9376 83.6403 82.359C83.995 81.771 84.4756 81.3136 85.0823 80.987C85.689 80.651 86.375 80.483 87.1403 80.483C87.8777 80.483 88.5403 80.6416 89.1283 80.959C89.7257 81.267 90.197 81.715 90.5423 82.303C90.8877 82.8816 91.0603 83.577 91.0603 84.389C91.0603 84.473 91.0557 84.571 91.0463 84.683C91.037 84.7856 91.0276 84.8836 91.0183 84.977H84.9003V83.703H89.8703L89.0303 84.081C89.0303 83.689 88.951 83.3483 88.7923 83.059C88.6336 82.7696 88.4143 82.5456 88.1343 82.387C87.8543 82.219 87.5276 82.135 87.1543 82.135C86.781 82.135 86.4496 82.219 86.1603 82.387C85.8803 82.5456 85.661 82.7743 85.5023 83.073C85.3436 83.3623 85.2643 83.7076 85.2643 84.109V84.445C85.2643 84.8556 85.353 85.2196 85.5303 85.537C85.717 85.845 85.9736 86.083 86.3003 86.251C86.6363 86.4096 87.0283 86.489 87.4763 86.489C87.8776 86.489 88.2276 86.4283 88.5263 86.307C88.8343 86.1856 89.1143 86.0036 89.3663 85.761L90.5283 87.021C90.183 87.413 89.749 87.7163 89.2263 87.931C88.7037 88.1363 88.1017 88.239 87.4203 88.239ZM95.0483 88.239C94.4043 88.239 93.7837 88.1643 93.1863 88.015C92.5983 87.8563 92.1317 87.6603 91.7863 87.427L92.5143 85.859C92.8597 86.0736 93.2657 86.251 93.7323 86.391C94.2083 86.5216 94.675 86.587 95.1323 86.587C95.6363 86.587 95.991 86.5263 96.1963 86.405C96.411 86.2836 96.5183 86.1156 96.5183 85.901C96.5183 85.7236 96.4343 85.593 96.2663 85.509C96.1077 85.4156 95.893 85.3456 95.6223 85.299C95.3517 85.2523 95.053 85.2056 94.7263 85.159C94.409 85.1123 94.087 85.0516 93.7603 84.977C93.4337 84.893 93.135 84.7716 92.8643 84.613C92.5937 84.4543 92.3743 84.2396 92.2063 83.969C92.0477 83.6983 91.9683 83.3483 91.9683 82.919C91.9683 82.443 92.1037 82.023 92.3743 81.659C92.6543 81.295 93.0557 81.0103 93.5783 80.805C94.101 80.5903 94.7263 80.483 95.4543 80.483C95.9677 80.483 96.4903 80.539 97.0223 80.651C97.5543 80.763 97.9977 80.9263 98.3523 81.141L97.6243 82.695C97.2603 82.4803 96.8917 82.3356 96.5183 82.261C96.1543 82.177 95.7997 82.135 95.4543 82.135C94.969 82.135 94.6143 82.2003 94.3903 82.331C94.1663 82.4616 94.0543 82.6296 94.0543 82.835C94.0543 83.0216 94.1337 83.1616 94.2923 83.255C94.4603 83.3483 94.6797 83.423 94.9503 83.479C95.221 83.535 95.515 83.5863 95.8323 83.633C96.159 83.6703 96.4857 83.731 96.8123 83.815C97.139 83.899 97.433 84.0203 97.6943 84.179C97.965 84.3283 98.1843 84.5383 98.3523 84.809C98.5203 85.0703 98.6043 85.4156 98.6043 85.845C98.6043 86.3116 98.4643 86.727 98.1843 87.091C97.9043 87.4456 97.4983 87.7256 96.9663 87.931C96.4437 88.1363 95.8043 88.239 95.0483 88.239Z" fill="black"/>
<circle cx="52.0024" cy="30.127" r="30" fill="#FFE6D3"/>
<g clip-path="url(#clip0_1065_35865)">
<path d="M61.0739 33.7673C59.95 34.4505 58.6591 34.8098 57.3438 34.8056C56.2419 34.7969 55.1525 34.5715 54.1376 34.1423C53.3554 35.2466 52.9367 36.5672 52.9399 37.9204V41.3763C52.9402 41.5048 52.9141 41.632 52.8631 41.75C52.8122 41.868 52.7375 41.9743 52.6438 42.0622C52.55 42.1501 52.4392 42.2178 52.3182 42.2611C52.1972 42.3044 52.0686 42.3223 51.9403 42.3138C51.6993 42.2928 51.4752 42.1815 51.3129 42.0022C51.1505 41.8229 51.0619 41.5889 51.0649 41.347V39.8892L46.5391 35.3634C45.8664 35.6144 45.1548 35.7457 44.4368 35.7513C43.4483 35.7539 42.4782 35.4834 41.6337 34.9697C39.0802 33.4181 37.7055 29.8474 37.9716 25.4142C37.985 25.1848 38.0821 24.9684 38.2446 24.8059C38.407 24.6435 38.6235 24.5463 38.8528 24.5329C43.286 24.2716 46.8567 25.6415 48.4036 28.195C49.0113 29.1959 49.2767 30.3675 49.1595 31.5325C49.1522 31.6228 49.1189 31.709 49.0636 31.7808C49.0084 31.8525 48.9335 31.9068 48.8481 31.9369C48.7627 31.967 48.6704 31.9717 48.5824 31.9505C48.4943 31.9293 48.4143 31.883 48.352 31.8173L46.102 29.4618C45.9248 29.2934 45.6888 29.201 45.4443 29.2041C45.1998 29.2072 44.9663 29.3057 44.7934 29.4786C44.6205 29.6515 44.522 29.885 44.5189 30.1295C44.5158 30.374 44.6082 30.61 44.7766 30.7872L51.0907 37.2618C51.0977 37.1704 51.1059 37.079 51.1153 36.9888C51.3203 35.2506 52.0873 33.6269 53.2997 32.3646L59.2282 26.0997C59.4041 25.924 59.503 25.6855 59.5031 25.4369C59.5032 25.1882 59.4045 24.9497 59.2288 24.7738C59.053 24.5978 58.8146 24.499 58.5659 24.4988C58.3173 24.4987 58.0787 24.5974 57.9028 24.7732L52.1606 30.8458C52.1032 30.9067 52.0304 30.9511 51.95 30.9743C51.8696 30.9976 51.7844 30.9989 51.7033 30.9781C51.6222 30.9573 51.5481 30.9151 51.4888 30.856C51.4295 30.7969 51.3872 30.723 51.3661 30.6419C50.8106 28.5935 51.0555 26.5544 52.1161 24.8036C54.2091 21.3489 59.0794 19.4997 65.145 19.856C65.3744 19.8694 65.5908 19.9665 65.7533 20.129C65.9157 20.2914 66.0129 20.5079 66.0263 20.7372C66.3778 26.804 64.5286 31.6743 61.0739 33.7673Z" fill="#018606"/>
</g>
<defs>
<clipPath id="clip0_1065_35865">
<rect width="30" height="30" fill="white" transform="translate(37.0024 15.127)"/>
</clipPath>
</defs>
</svg>
