<svg width="105" height="115" viewBox="0 0 105 115" fill="none" xmlns="http://www.w3.org/2000/svg">
<circle cx="53.0024" cy="30.127" r="30" fill="#FFE6D3"/>
<path d="M38.7444 37.627V23.789L40.6144 25.593H35.8844V22.227H43.1004V37.627H38.7444ZM52.2145 37.935C50.8945 37.935 49.7211 37.6196 48.6945 36.989C47.6825 36.3583 46.8831 35.449 46.2965 34.261C45.7098 33.073 45.4165 31.6283 45.4165 29.927C45.4165 28.2256 45.7098 26.781 46.2965 25.593C46.8831 24.405 47.6825 23.4956 48.6945 22.865C49.7211 22.2343 50.8945 21.919 52.2145 21.919C53.5198 21.919 54.6785 22.2343 55.6905 22.865C56.7171 23.4956 57.5238 24.405 58.1105 25.593C58.6971 26.781 58.9905 28.2256 58.9905 29.927C58.9905 31.6283 58.6971 33.073 58.1105 34.261C57.5238 35.449 56.7171 36.3583 55.6905 36.989C54.6785 37.6196 53.5198 37.935 52.2145 37.935ZM52.2145 34.371C52.6838 34.371 53.0945 34.2243 53.4465 33.931C53.8131 33.6376 54.0991 33.1683 54.3045 32.523C54.5098 31.863 54.6125 30.9976 54.6125 29.927C54.6125 28.8416 54.5098 27.9763 54.3045 27.331C54.0991 26.6856 53.8131 26.2163 53.4465 25.923C53.0945 25.6296 52.6838 25.483 52.2145 25.483C51.7451 25.483 51.3271 25.6296 50.9605 25.923C50.6085 26.2163 50.3225 26.6856 50.1025 27.331C49.8971 27.9763 49.7945 28.8416 49.7945 29.927C49.7945 30.9976 49.8971 31.863 50.1025 32.523C50.3225 33.1683 50.6085 33.6376 50.9605 33.931C51.3271 34.2243 51.7451 34.371 52.2145 34.371ZM64.788 35.163V24.691H68.176V35.163H64.788ZM61.048 31.533V28.321H71.894V31.533H61.048Z" fill="#25026E"/>
<path d="M10.1012 89.295C9.32653 89.295 8.60787 89.169 7.9452 88.917C7.29187 88.665 6.72253 88.3103 6.2372 87.853C5.7612 87.3956 5.38787 86.859 5.1172 86.243C4.85587 85.627 4.7252 84.955 4.7252 84.227C4.7252 83.499 4.85587 82.827 5.1172 82.211C5.38787 81.595 5.76587 81.0583 6.2512 80.601C6.73653 80.1436 7.30587 79.789 7.9592 79.537C8.61253 79.285 9.32187 79.159 10.0872 79.159C10.8619 79.159 11.5712 79.285 12.2152 79.537C12.8685 79.789 13.4332 80.1436 13.9092 80.601C14.3945 81.0583 14.7725 81.595 15.0432 82.211C15.3139 82.8176 15.4492 83.4896 15.4492 84.227C15.4492 84.955 15.3139 85.6316 15.0432 86.257C14.7725 86.873 14.3945 87.4096 13.9092 87.867C13.4332 88.315 12.8685 88.665 12.2152 88.917C11.5712 89.169 10.8665 89.295 10.1012 89.295ZM10.0872 87.363C10.5259 87.363 10.9272 87.2883 11.2912 87.139C11.6645 86.9896 11.9912 86.775 12.2712 86.495C12.5512 86.215 12.7659 85.8836 12.9152 85.501C13.0739 85.1183 13.1532 84.6936 13.1532 84.227C13.1532 83.7603 13.0739 83.3356 12.9152 82.953C12.7659 82.5703 12.5512 82.239 12.2712 81.959C12.0005 81.679 11.6785 81.4643 11.3052 81.315C10.9319 81.1656 10.5259 81.091 10.0872 81.091C9.64853 81.091 9.24253 81.1656 8.8692 81.315C8.5052 81.4643 8.1832 81.679 7.9032 81.959C7.6232 82.239 7.40387 82.5703 7.2452 82.953C7.09587 83.3356 7.0212 83.7603 7.0212 84.227C7.0212 84.6843 7.09587 85.109 7.2452 85.501C7.40387 85.8836 7.61853 86.215 7.8892 86.495C8.1692 86.775 8.49587 86.9896 8.8692 87.139C9.24253 87.2883 9.64853 87.363 10.0872 87.363ZM19.0437 89.127L15.8797 81.595H18.1337L20.7657 88.077H19.6457L22.3757 81.595H24.4757L21.2977 89.127H19.0437ZM28.8998 89.239C28.0411 89.239 27.2851 89.071 26.6318 88.735C25.9878 88.399 25.4885 87.9416 25.1338 87.363C24.7791 86.775 24.6018 86.1076 24.6018 85.361C24.6018 84.605 24.7745 83.9376 25.1198 83.359C25.4745 82.771 25.9551 82.3136 26.5618 81.987C27.1685 81.651 27.8545 81.483 28.6198 81.483C29.3571 81.483 30.0198 81.6416 30.6078 81.959C31.2051 82.267 31.6765 82.715 32.0218 83.303C32.3671 83.8816 32.5398 84.577 32.5398 85.389C32.5398 85.473 32.5351 85.571 32.5258 85.683C32.5165 85.7856 32.5071 85.8836 32.4978 85.977H26.3798V84.703H31.3498L30.5098 85.081C30.5098 84.689 30.4305 84.3483 30.2718 84.059C30.1131 83.7696 29.8938 83.5456 29.6138 83.387C29.3338 83.219 29.0071 83.135 28.6338 83.135C28.2605 83.135 27.9291 83.219 27.6398 83.387C27.3598 83.5456 27.1405 83.7743 26.9818 84.073C26.8231 84.3623 26.7438 84.7076 26.7438 85.109V85.445C26.7438 85.8556 26.8325 86.2196 27.0098 86.537C27.1965 86.845 27.4531 87.083 27.7798 87.251C28.1158 87.4096 28.5078 87.489 28.9558 87.489C29.3571 87.489 29.7071 87.4283 30.0058 87.307C30.3138 87.1856 30.5938 87.0036 30.8458 86.761L32.0078 88.021C31.6625 88.413 31.2285 88.7163 30.7058 88.931C30.1831 89.1363 29.5811 89.239 28.8998 89.239ZM33.9938 89.127V81.595H36.0798V83.723L35.7858 83.107C36.0098 82.575 36.3692 82.1736 36.8638 81.903C37.3585 81.623 37.9605 81.483 38.6698 81.483V83.499C38.5765 83.4896 38.4925 83.485 38.4178 83.485C38.3432 83.4756 38.2638 83.471 38.1798 83.471C37.5825 83.471 37.0972 83.6436 36.7238 83.989C36.3598 84.325 36.1778 84.8523 36.1778 85.571V89.127H33.9938ZM45.038 89.127V80.167L46.018 81.147H43.078V79.327H47.306V89.127H45.038ZM53.2084 89.295C52.4057 89.295 51.6871 89.099 51.0524 88.707C50.4177 88.3056 49.9184 87.727 49.5544 86.971C49.1904 86.215 49.0084 85.3003 49.0084 84.227C49.0084 83.1536 49.1904 82.239 49.5544 81.483C49.9184 80.727 50.4177 80.153 51.0524 79.761C51.6871 79.3596 52.4057 79.159 53.2084 79.159C54.0204 79.159 54.7391 79.3596 55.3644 79.761C55.9991 80.153 56.4984 80.727 56.8624 81.483C57.2264 82.239 57.4084 83.1536 57.4084 84.227C57.4084 85.3003 57.2264 86.215 56.8624 86.971C56.4984 87.727 55.9991 88.3056 55.3644 88.707C54.7391 89.099 54.0204 89.295 53.2084 89.295ZM53.2084 87.377C53.5911 87.377 53.9224 87.2696 54.2024 87.055C54.4917 86.8403 54.7157 86.4996 54.8744 86.033C55.0424 85.5663 55.1264 84.9643 55.1264 84.227C55.1264 83.4896 55.0424 82.8876 54.8744 82.421C54.7157 81.9543 54.4917 81.6136 54.2024 81.399C53.9224 81.1843 53.5911 81.077 53.2084 81.077C52.8351 81.077 52.5037 81.1843 52.2144 81.399C51.9344 81.6136 51.7104 81.9543 51.5424 82.421C51.3837 82.8876 51.3044 83.4896 51.3044 84.227C51.3044 84.9643 51.3837 85.5663 51.5424 86.033C51.7104 86.4996 51.9344 86.8403 52.2144 87.055C52.5037 87.2696 52.8351 87.377 53.2084 87.377ZM63.8892 91.955C63.4972 91.955 63.1099 91.8943 62.7272 91.773C62.3445 91.6516 62.0319 91.4836 61.7892 91.269L62.5872 89.715C62.7552 89.8643 62.9465 89.981 63.1612 90.065C63.3852 90.149 63.6045 90.191 63.8192 90.191C64.1272 90.191 64.3699 90.1163 64.5472 89.967C64.7339 89.827 64.9019 89.589 65.0512 89.253L65.4432 88.329L65.6112 88.091L68.3132 81.595H70.4132L67.0112 89.589C66.7685 90.1956 66.4885 90.6716 66.1712 91.017C65.8632 91.3623 65.5179 91.605 65.1352 91.745C64.7619 91.885 64.3465 91.955 63.8892 91.955ZM65.1772 89.421L61.8172 81.595H64.0712L66.6752 87.895L65.1772 89.421ZM74.8373 89.239C73.9786 89.239 73.2226 89.071 72.5693 88.735C71.9253 88.399 71.426 87.9416 71.0713 87.363C70.7166 86.775 70.5393 86.1076 70.5393 85.361C70.5393 84.605 70.712 83.9376 71.0573 83.359C71.412 82.771 71.8926 82.3136 72.4993 81.987C73.106 81.651 73.792 81.483 74.5573 81.483C75.2946 81.483 75.9573 81.6416 76.5453 81.959C77.1426 82.267 77.614 82.715 77.9593 83.303C78.3046 83.8816 78.4773 84.577 78.4773 85.389C78.4773 85.473 78.4726 85.571 78.4633 85.683C78.454 85.7856 78.4446 85.8836 78.4353 85.977H72.3173V84.703H77.2873L76.4473 85.081C76.4473 84.689 76.368 84.3483 76.2093 84.059C76.0506 83.7696 75.8313 83.5456 75.5513 83.387C75.2713 83.219 74.9446 83.135 74.5713 83.135C74.198 83.135 73.8666 83.219 73.5773 83.387C73.2973 83.5456 73.078 83.7743 72.9193 84.073C72.7606 84.3623 72.6813 84.7076 72.6813 85.109V85.445C72.6813 85.8556 72.77 86.2196 72.9473 86.537C73.134 86.845 73.3906 87.083 73.7173 87.251C74.0533 87.4096 74.4453 87.489 74.8933 87.489C75.2946 87.489 75.6446 87.4283 75.9433 87.307C76.2513 87.1856 76.5313 87.0036 76.7833 86.761L77.9453 88.021C77.6 88.413 77.166 88.7163 76.6433 88.931C76.1206 89.1363 75.5186 89.239 74.8373 89.239ZM84.3463 89.127V87.657L84.2063 87.335V84.703C84.2063 84.2363 84.0616 83.8723 83.7723 83.611C83.4923 83.3496 83.0583 83.219 82.4703 83.219C82.0689 83.219 81.6723 83.2843 81.2803 83.415C80.8976 83.5363 80.5709 83.7043 80.3003 83.919L79.5163 82.393C79.9269 82.1036 80.4216 81.8796 81.0003 81.721C81.5789 81.5623 82.1669 81.483 82.7643 81.483C83.9123 81.483 84.8036 81.7536 85.4383 82.295C86.0729 82.8363 86.3903 83.681 86.3903 84.829V89.127H84.3463ZM82.0503 89.239C81.4623 89.239 80.9583 89.141 80.5383 88.945C80.1183 88.7396 79.7963 88.4643 79.5723 88.119C79.3483 87.7736 79.2363 87.3863 79.2363 86.957C79.2363 86.509 79.3436 86.117 79.5583 85.781C79.7823 85.445 80.1323 85.1836 80.6083 84.997C81.0843 84.801 81.7049 84.703 82.4703 84.703H84.4723V85.977H82.7083C82.1949 85.977 81.8403 86.061 81.6443 86.229C81.4576 86.397 81.3643 86.607 81.3643 86.859C81.3643 87.139 81.4716 87.363 81.6863 87.531C81.9103 87.6896 82.2136 87.769 82.5963 87.769C82.9603 87.769 83.2869 87.685 83.5763 87.517C83.8656 87.3396 84.0756 87.083 84.2063 86.747L84.5423 87.755C84.3836 88.2403 84.0943 88.609 83.6743 88.861C83.2543 89.113 82.7129 89.239 82.0503 89.239ZM88.3669 89.127V81.595H90.4529V83.723L90.1589 83.107C90.3829 82.575 90.7422 82.1736 91.2369 81.903C91.7316 81.623 92.3336 81.483 93.0429 81.483V83.499C92.9496 83.4896 92.8656 83.485 92.7909 83.485C92.7162 83.4756 92.6369 83.471 92.5529 83.471C91.9556 83.471 91.4702 83.6436 91.0969 83.989C90.7329 84.325 90.5509 84.8523 90.5509 85.571V89.127H88.3669ZM96.9302 89.239C96.2862 89.239 95.6655 89.1643 95.0682 89.015C94.4802 88.8563 94.0135 88.6603 93.6682 88.427L94.3962 86.859C94.7415 87.0736 95.1475 87.251 95.6142 87.391C96.0902 87.5216 96.5569 87.587 97.0142 87.587C97.5182 87.587 97.8729 87.5263 98.0782 87.405C98.2929 87.2836 98.4002 87.1156 98.4002 86.901C98.4002 86.7236 98.3162 86.593 98.1482 86.509C97.9895 86.4156 97.7749 86.3456 97.5042 86.299C97.2335 86.2523 96.9349 86.2056 96.6082 86.159C96.2909 86.1123 95.9689 86.0516 95.6422 85.977C95.3155 85.893 95.0169 85.7716 94.7462 85.613C94.4755 85.4543 94.2562 85.2396 94.0882 84.969C93.9295 84.6983 93.8502 84.3483 93.8502 83.919C93.8502 83.443 93.9855 83.023 94.2562 82.659C94.5362 82.295 94.9375 82.0103 95.4602 81.805C95.9829 81.5903 96.6082 81.483 97.3362 81.483C97.8495 81.483 98.3722 81.539 98.9042 81.651C99.4362 81.763 99.8795 81.9263 100.234 82.141L99.5062 83.695C99.1422 83.4803 98.7735 83.3356 98.4002 83.261C98.0362 83.177 97.6815 83.135 97.3362 83.135C96.8509 83.135 96.4962 83.2003 96.2722 83.331C96.0482 83.4616 95.9362 83.6296 95.9362 83.835C95.9362 84.0216 96.0155 84.1616 96.1742 84.255C96.3422 84.3483 96.5615 84.423 96.8322 84.479C97.1029 84.535 97.3969 84.5863 97.7142 84.633C98.0409 84.6703 98.3675 84.731 98.6942 84.815C99.0209 84.899 99.3149 85.0203 99.5762 85.179C99.8469 85.3283 100.066 85.5383 100.234 85.809C100.402 86.0703 100.486 86.4156 100.486 86.845C100.486 87.3116 100.346 87.727 100.066 88.091C99.7862 88.4456 99.3802 88.7256 98.8482 88.931C98.3255 89.1363 97.6862 89.239 96.9302 89.239ZM9.18819 109.239C8.38552 109.239 7.67152 109.071 7.04619 108.735C6.43019 108.399 5.94019 107.942 5.57619 107.363C5.22152 106.775 5.04419 106.108 5.04419 105.361C5.04419 104.605 5.22152 103.938 5.57619 103.359C5.94019 102.771 6.43019 102.314 7.04619 101.987C7.67152 101.651 8.38552 101.483 9.18819 101.483C9.98152 101.483 10.6909 101.651 11.3162 101.987C11.9415 102.314 12.4315 102.766 12.7862 103.345C13.1409 103.924 13.3182 104.596 13.3182 105.361C13.3182 106.108 13.1409 106.775 12.7862 107.363C12.4315 107.942 11.9415 108.399 11.3162 108.735C10.6909 109.071 9.98152 109.239 9.18819 109.239ZM9.18819 107.447C9.55219 107.447 9.87886 107.363 10.1682 107.195C10.4575 107.027 10.6862 106.789 10.8542 106.481C11.0222 106.164 11.1062 105.79 11.1062 105.361C11.1062 104.922 11.0222 104.549 10.8542 104.241C10.6862 103.933 10.4575 103.695 10.1682 103.527C9.87886 103.359 9.55219 103.275 9.18819 103.275C8.82419 103.275 8.49752 103.359 8.20819 103.527C7.91886 103.695 7.68552 103.933 7.50819 104.241C7.34019 104.549 7.25619 104.922 7.25619 105.361C7.25619 105.79 7.34019 106.164 7.50819 106.481C7.68552 106.789 7.91886 107.027 8.20819 107.195C8.49752 107.363 8.82419 107.447 9.18819 107.447ZM15.044 109.127V101.427C15.044 100.578 15.296 99.901 15.8 99.397C16.304 98.8836 17.0227 98.627 17.956 98.627C18.2734 98.627 18.5767 98.6596 18.866 98.725C19.1647 98.7903 19.4167 98.893 19.622 99.033L19.048 100.615C18.9267 100.531 18.7914 100.466 18.642 100.419C18.4927 100.372 18.334 100.349 18.166 100.349C17.8487 100.349 17.6014 100.442 17.424 100.629C17.256 100.806 17.172 101.077 17.172 101.441V102.141L17.228 103.079V109.127H15.044ZM13.882 103.443V101.763H19.104V103.443H13.882ZM27.8949 109.239C27.0363 109.239 26.2803 109.071 25.6269 108.735C24.9829 108.399 24.4836 107.942 24.1289 107.363C23.7743 106.775 23.5969 106.108 23.5969 105.361C23.5969 104.605 23.7696 103.938 24.1149 103.359C24.4696 102.771 24.9503 102.314 25.5569 101.987C26.1636 101.651 26.8496 101.483 27.6149 101.483C28.3523 101.483 29.0149 101.642 29.6029 101.959C30.2003 102.267 30.6716 102.715 31.0169 103.303C31.3623 103.882 31.5349 104.577 31.5349 105.389C31.5349 105.473 31.5303 105.571 31.5209 105.683C31.5116 105.786 31.5023 105.884 31.4929 105.977H25.3749V104.703H30.3449L29.5049 105.081C29.5049 104.689 29.4256 104.348 29.2669 104.059C29.1083 103.77 28.8889 103.546 28.6089 103.387C28.3289 103.219 28.0023 103.135 27.6289 103.135C27.2556 103.135 26.9243 103.219 26.6349 103.387C26.3549 103.546 26.1356 103.774 25.9769 104.073C25.8183 104.362 25.7389 104.708 25.7389 105.109V105.445C25.7389 105.856 25.8276 106.22 26.0049 106.537C26.1916 106.845 26.4483 107.083 26.7749 107.251C27.1109 107.41 27.5029 107.489 27.9509 107.489C28.3523 107.489 28.7023 107.428 29.0009 107.307C29.3089 107.186 29.5889 107.004 29.8409 106.761L31.0029 108.021C30.6576 108.413 30.2236 108.716 29.7009 108.931C29.1783 109.136 28.5763 109.239 27.8949 109.239ZM31.8319 109.127L35.2059 104.703L35.1639 105.907L31.9299 101.595H34.3799L36.4239 104.409L35.4999 104.437L37.6139 101.595H39.9379L36.6899 105.865V104.689L40.0499 109.127H37.5719L35.4299 106.131L36.3399 106.257L34.2119 109.127H31.8319ZM45.5621 109.239C44.9274 109.239 44.3721 109.099 43.8961 108.819C43.4201 108.539 43.0467 108.114 42.7761 107.545C42.5147 106.966 42.3841 106.238 42.3841 105.361C42.3841 104.474 42.5101 103.746 42.7621 103.177C43.0141 102.608 43.3781 102.183 43.8541 101.903C44.3301 101.623 44.8994 101.483 45.5621 101.483C46.2714 101.483 46.9061 101.646 47.4661 101.973C48.0354 102.29 48.4834 102.738 48.8101 103.317C49.1461 103.896 49.3141 104.577 49.3141 105.361C49.3141 106.154 49.1461 106.84 48.8101 107.419C48.4834 107.998 48.0354 108.446 47.4661 108.763C46.9061 109.08 46.2714 109.239 45.5621 109.239ZM41.1101 111.843V101.595H43.1961V103.135L43.1541 105.375L43.2941 107.601V111.843H41.1101ZM45.1841 107.447C45.5481 107.447 45.8701 107.363 46.1501 107.195C46.4394 107.027 46.6681 106.789 46.8361 106.481C47.0134 106.164 47.1021 105.79 47.1021 105.361C47.1021 104.922 47.0134 104.549 46.8361 104.241C46.6681 103.933 46.4394 103.695 46.1501 103.527C45.8701 103.359 45.5481 103.275 45.1841 103.275C44.8201 103.275 44.4934 103.359 44.2041 103.527C43.9147 103.695 43.6861 103.933 43.5181 104.241C43.3501 104.549 43.2661 104.922 43.2661 105.361C43.2661 105.79 43.3501 106.164 43.5181 106.481C43.6861 106.789 43.9147 107.027 44.2041 107.195C44.4934 107.363 44.8201 107.447 45.1841 107.447ZM54.5141 109.239C53.6554 109.239 52.8994 109.071 52.2461 108.735C51.6021 108.399 51.1027 107.942 50.7481 107.363C50.3934 106.775 50.2161 106.108 50.2161 105.361C50.2161 104.605 50.3887 103.938 50.7341 103.359C51.0887 102.771 51.5694 102.314 52.1761 101.987C52.7827 101.651 53.4687 101.483 54.2341 101.483C54.9714 101.483 55.6341 101.642 56.2221 101.959C56.8194 102.267 57.2907 102.715 57.6361 103.303C57.9814 103.882 58.1541 104.577 58.1541 105.389C58.1541 105.473 58.1494 105.571 58.1401 105.683C58.1307 105.786 58.1214 105.884 58.1121 105.977H51.9941V104.703H56.9641L56.1241 105.081C56.1241 104.689 56.0447 104.348 55.8861 104.059C55.7274 103.77 55.5081 103.546 55.2281 103.387C54.9481 103.219 54.6214 103.135 54.2481 103.135C53.8747 103.135 53.5434 103.219 53.2541 103.387C52.9741 103.546 52.7547 103.774 52.5961 104.073C52.4374 104.362 52.3581 104.708 52.3581 105.109V105.445C52.3581 105.856 52.4467 106.22 52.6241 106.537C52.8107 106.845 53.0674 107.083 53.3941 107.251C53.7301 107.41 54.1221 107.489 54.5701 107.489C54.9714 107.489 55.3214 107.428 55.6201 107.307C55.9281 107.186 56.2081 107.004 56.4601 106.761L57.6221 108.021C57.2767 108.413 56.8427 108.716 56.3201 108.931C55.7974 109.136 55.1954 109.239 54.5141 109.239ZM59.6081 109.127V101.595H61.6941V103.723L61.4001 103.107C61.6241 102.575 61.9834 102.174 62.4781 101.903C62.9728 101.623 63.5748 101.483 64.2841 101.483V103.499C64.1908 103.49 64.1068 103.485 64.0321 103.485C63.9574 103.476 63.8781 103.471 63.7941 103.471C63.1968 103.471 62.7114 103.644 62.3381 103.989C61.9741 104.325 61.7921 104.852 61.7921 105.571V109.127H59.6081ZM65.5964 109.127V101.595H67.7804V109.127H65.5964ZM66.6884 100.545C66.287 100.545 65.9604 100.428 65.7084 100.195C65.4564 99.9616 65.3304 99.6723 65.3304 99.327C65.3304 98.9816 65.4564 98.6923 65.7084 98.459C65.9604 98.2256 66.287 98.109 66.6884 98.109C67.0897 98.109 67.4164 98.221 67.6684 98.445C67.9204 98.6596 68.0464 98.9396 68.0464 99.285C68.0464 99.649 67.9204 99.9523 67.6684 100.195C67.4257 100.428 67.099 100.545 66.6884 100.545ZM73.5453 109.239C72.6866 109.239 71.9306 109.071 71.2773 108.735C70.6333 108.399 70.134 107.942 69.7793 107.363C69.4246 106.775 69.2473 106.108 69.2473 105.361C69.2473 104.605 69.42 103.938 69.7653 103.359C70.12 102.771 70.6006 102.314 71.2073 101.987C71.814 101.651 72.5 101.483 73.2653 101.483C74.0027 101.483 74.6653 101.642 75.2533 101.959C75.8507 102.267 76.322 102.715 76.6673 103.303C77.0127 103.882 77.1853 104.577 77.1853 105.389C77.1853 105.473 77.1807 105.571 77.1713 105.683C77.162 105.786 77.1526 105.884 77.1433 105.977H71.0253V104.703H75.9953L75.1553 105.081C75.1553 104.689 75.076 104.348 74.9173 104.059C74.7586 103.77 74.5393 103.546 74.2593 103.387C73.9793 103.219 73.6526 103.135 73.2793 103.135C72.906 103.135 72.5746 103.219 72.2853 103.387C72.0053 103.546 71.786 103.774 71.6273 104.073C71.4686 104.362 71.3893 104.708 71.3893 105.109V105.445C71.3893 105.856 71.478 106.22 71.6553 106.537C71.842 106.845 72.0986 107.083 72.4253 107.251C72.7613 107.41 73.1533 107.489 73.6013 107.489C74.0026 107.489 74.3526 107.428 74.6513 107.307C74.9593 107.186 75.2393 107.004 75.4913 106.761L76.6533 108.021C76.308 108.413 75.874 108.716 75.3513 108.931C74.8287 109.136 74.2267 109.239 73.5453 109.239ZM83.2173 101.483C83.8147 101.483 84.3467 101.604 84.8133 101.847C85.2893 102.08 85.6627 102.444 85.9333 102.939C86.204 103.424 86.3393 104.05 86.3393 104.815V109.127H84.1553V105.151C84.1553 104.544 84.02 104.096 83.7493 103.807C83.488 103.518 83.1147 103.373 82.6293 103.373C82.284 103.373 81.9713 103.448 81.6913 103.597C81.4207 103.737 81.206 103.956 81.0473 104.255C80.898 104.554 80.8233 104.936 80.8233 105.403V109.127H78.6393V101.595H80.7253V103.681L80.3333 103.051C80.604 102.547 80.9913 102.16 81.4953 101.889C81.9993 101.618 82.5733 101.483 83.2173 101.483ZM92.0137 109.239C91.2017 109.239 90.4784 109.076 89.8437 108.749C89.2091 108.413 88.7097 107.951 88.3457 107.363C87.9911 106.775 87.8137 106.108 87.8137 105.361C87.8137 104.605 87.9911 103.938 88.3457 103.359C88.7097 102.771 89.2091 102.314 89.8437 101.987C90.4784 101.651 91.2017 101.483 92.0137 101.483C92.8071 101.483 93.4977 101.651 94.0857 101.987C94.6737 102.314 95.1077 102.785 95.3877 103.401L93.6937 104.311C93.4977 103.956 93.2504 103.695 92.9517 103.527C92.6624 103.359 92.3451 103.275 91.9997 103.275C91.6264 103.275 91.2904 103.359 90.9917 103.527C90.6931 103.695 90.4551 103.933 90.2777 104.241C90.1097 104.549 90.0257 104.922 90.0257 105.361C90.0257 105.8 90.1097 106.173 90.2777 106.481C90.4551 106.789 90.6931 107.027 90.9917 107.195C91.2904 107.363 91.6264 107.447 91.9997 107.447C92.3451 107.447 92.6624 107.368 92.9517 107.209C93.2504 107.041 93.4977 106.775 93.6937 106.411L95.3877 107.335C95.1077 107.942 94.6737 108.413 94.0857 108.749C93.4977 109.076 92.8071 109.239 92.0137 109.239ZM100.288 109.239C99.4288 109.239 98.6728 109.071 98.0195 108.735C97.3755 108.399 96.8762 107.942 96.5215 107.363C96.1668 106.775 95.9895 106.108 95.9895 105.361C95.9895 104.605 96.1622 103.938 96.5075 103.359C96.8622 102.771 97.3428 102.314 97.9495 101.987C98.5562 101.651 99.2422 101.483 100.008 101.483C100.745 101.483 101.408 101.642 101.996 101.959C102.593 102.267 103.064 102.715 103.41 103.303C103.755 103.882 103.928 104.577 103.928 105.389C103.928 105.473 103.923 105.571 103.914 105.683C103.904 105.786 103.895 105.884 103.886 105.977H97.7675V104.703H102.738L101.898 105.081C101.898 104.689 101.818 104.348 101.66 104.059C101.501 103.77 101.282 103.546 101.002 103.387C100.722 103.219 100.395 103.135 100.022 103.135C99.6482 103.135 99.3168 103.219 99.0275 103.387C98.7475 103.546 98.5282 103.774 98.3695 104.073C98.2108 104.362 98.1315 104.708 98.1315 105.109V105.445C98.1315 105.856 98.2202 106.22 98.3975 106.537C98.5842 106.845 98.8408 107.083 99.1675 107.251C99.5035 107.41 99.8955 107.489 100.344 107.489C100.745 107.489 101.095 107.428 101.394 107.307C101.702 107.186 101.982 107.004 102.234 106.761L103.396 108.021C103.05 108.413 102.616 108.716 102.094 108.931C101.571 109.136 100.969 109.239 100.288 109.239Z" fill="black"/>
</svg>
