<svg width="97" height="116" viewBox="0 0 97 116" fill="none" xmlns="http://www.w3.org/2000/svg">
<path d="M3.70004 90.127L0.494035 80.327H2.84604L5.63204 89.007H4.45604L7.36804 80.327H9.46804L12.268 89.007H11.134L13.99 80.327H16.16L12.954 90.127H10.518L8.04004 82.511H8.68404L6.13604 90.127H3.70004ZM20.4496 90.239C19.5909 90.239 18.8349 90.071 18.1816 89.735C17.5376 89.399 17.0383 88.9416 16.6836 88.363C16.3289 87.775 16.1516 87.1076 16.1516 86.361C16.1516 85.605 16.3243 84.9376 16.6696 84.359C17.0243 83.771 17.5049 83.3136 18.1116 82.987C18.7183 82.651 19.4043 82.483 20.1696 82.483C20.9069 82.483 21.5696 82.6416 22.1576 82.959C22.7549 83.267 23.2263 83.715 23.5716 84.303C23.9169 84.8816 24.0896 85.577 24.0896 86.389C24.0896 86.473 24.0849 86.571 24.0756 86.683C24.0663 86.7856 24.0569 86.8836 24.0476 86.977H17.9296V85.703H22.8996L22.0596 86.081C22.0596 85.689 21.9803 85.3483 21.8216 85.059C21.6629 84.7696 21.4436 84.5456 21.1636 84.387C20.8836 84.219 20.5569 84.135 20.1836 84.135C19.8103 84.135 19.4789 84.219 19.1896 84.387C18.9096 84.5456 18.6903 84.7743 18.5316 85.073C18.3729 85.3623 18.2936 85.7076 18.2936 86.109V86.445C18.2936 86.8556 18.3823 87.2196 18.5596 87.537C18.7463 87.845 19.0029 88.083 19.3296 88.251C19.6656 88.4096 20.0576 88.489 20.5056 88.489C20.9069 88.489 21.2569 88.4283 21.5556 88.307C21.8636 88.1856 22.1436 88.0036 22.3956 87.761L23.5576 89.021C23.2123 89.413 22.7783 89.7163 22.2556 89.931C21.7329 90.1363 21.1309 90.239 20.4496 90.239ZM32.6865 90.239C32.0612 90.239 31.5012 90.1176 31.0065 89.875C30.5212 89.6323 30.1432 89.2636 29.8725 88.769C29.6018 88.265 29.4665 87.6256 29.4665 86.851V82.595H31.6505V86.529C31.6505 87.1543 31.7812 87.6163 32.0425 87.915C32.3132 88.2043 32.6912 88.349 33.1765 88.349C33.5125 88.349 33.8112 88.279 34.0725 88.139C34.3338 87.9896 34.5392 87.7656 34.6885 87.467C34.8378 87.159 34.9125 86.7763 34.9125 86.319V82.595H37.0965V90.127H35.0245V88.055L35.4025 88.657C35.1505 89.1796 34.7772 89.5763 34.2825 89.847C33.7972 90.1083 33.2652 90.239 32.6865 90.239ZM41.6538 90.239C41.0098 90.239 40.3891 90.1643 39.7918 90.015C39.2038 89.8563 38.7371 89.6603 38.3918 89.427L39.1198 87.859C39.4651 88.0736 39.8711 88.251 40.3378 88.391C40.8138 88.5216 41.2805 88.587 41.7378 88.587C42.2418 88.587 42.5965 88.5263 42.8018 88.405C43.0165 88.2836 43.1238 88.1156 43.1238 87.901C43.1238 87.7236 43.0398 87.593 42.8718 87.509C42.7131 87.4156 42.4985 87.3456 42.2278 87.299C41.9571 87.2523 41.6585 87.2056 41.3318 87.159C41.0145 87.1123 40.6925 87.0516 40.3658 86.977C40.0391 86.893 39.7405 86.7716 39.4698 86.613C39.1991 86.4543 38.9798 86.2396 38.8118 85.969C38.6531 85.6983 38.5738 85.3483 38.5738 84.919C38.5738 84.443 38.7091 84.023 38.9798 83.659C39.2598 83.295 39.6611 83.0103 40.1838 82.805C40.7065 82.5903 41.3318 82.483 42.0598 82.483C42.5731 82.483 43.0958 82.539 43.6278 82.651C44.1598 82.763 44.6032 82.9263 44.9578 83.141L44.2298 84.695C43.8658 84.4803 43.4972 84.3356 43.1238 84.261C42.7598 84.177 42.4051 84.135 42.0598 84.135C41.5745 84.135 41.2198 84.2003 40.9958 84.331C40.7718 84.4616 40.6598 84.6296 40.6598 84.835C40.6598 85.0216 40.7391 85.1616 40.8978 85.255C41.0658 85.3483 41.2851 85.423 41.5558 85.479C41.8265 85.535 42.1205 85.5863 42.4378 85.633C42.7645 85.6703 43.0911 85.731 43.4178 85.815C43.7445 85.899 44.0385 86.0203 44.2998 86.179C44.5705 86.3283 44.7898 86.5383 44.9578 86.809C45.1258 87.0703 45.2098 87.4156 45.2098 87.845C45.2098 88.3116 45.0698 88.727 44.7898 89.091C44.5098 89.4456 44.1038 89.7256 43.5718 89.931C43.0492 90.1363 42.4098 90.239 41.6538 90.239ZM50.2953 90.239C49.4366 90.239 48.6806 90.071 48.0273 89.735C47.3833 89.399 46.884 88.9416 46.5293 88.363C46.1746 87.775 45.9973 87.1076 45.9973 86.361C45.9973 85.605 46.17 84.9376 46.5153 84.359C46.87 83.771 47.3506 83.3136 47.9573 82.987C48.564 82.651 49.25 82.483 50.0153 82.483C50.7527 82.483 51.4153 82.6416 52.0033 82.959C52.6007 83.267 53.072 83.715 53.4173 84.303C53.7627 84.8816 53.9353 85.577 53.9353 86.389C53.9353 86.473 53.9307 86.571 53.9213 86.683C53.912 86.7856 53.9026 86.8836 53.8933 86.977H47.7753V85.703H52.7453L51.9053 86.081C51.9053 85.689 51.826 85.3483 51.6673 85.059C51.5086 84.7696 51.2893 84.5456 51.0093 84.387C50.7293 84.219 50.4026 84.135 50.0293 84.135C49.656 84.135 49.3246 84.219 49.0353 84.387C48.7553 84.5456 48.536 84.7743 48.3773 85.073C48.2186 85.3623 48.1393 85.7076 48.1393 86.109V86.445C48.1393 86.8556 48.228 87.2196 48.4053 87.537C48.592 87.845 48.8486 88.083 49.1753 88.251C49.5113 88.4096 49.9033 88.489 50.3513 88.489C50.7526 88.489 51.1026 88.4283 51.4013 88.307C51.7093 88.1856 51.9893 88.0036 52.2413 87.761L53.4033 89.021C53.058 89.413 52.624 89.7163 52.1013 89.931C51.5787 90.1363 50.9767 90.239 50.2953 90.239ZM59.3542 90.127V79.739H61.5382V90.127H59.3542ZM67.1491 90.239C66.3465 90.239 65.6325 90.071 65.0071 89.735C64.3911 89.399 63.9011 88.9416 63.5371 88.363C63.1825 87.775 63.0051 87.1076 63.0051 86.361C63.0051 85.605 63.1825 84.9376 63.5371 84.359C63.9011 83.771 64.3911 83.3136 65.0071 82.987C65.6325 82.651 66.3465 82.483 67.1491 82.483C67.9425 82.483 68.6518 82.651 69.2771 82.987C69.9025 83.3136 70.3925 83.7663 70.7471 84.345C71.1018 84.9236 71.2791 85.5956 71.2791 86.361C71.2791 87.1076 71.1018 87.775 70.7471 88.363C70.3925 88.9416 69.9025 89.399 69.2771 89.735C68.6518 90.071 67.9425 90.239 67.1491 90.239ZM67.1491 88.447C67.5131 88.447 67.8398 88.363 68.1291 88.195C68.4185 88.027 68.6471 87.789 68.8151 87.481C68.9831 87.1636 69.0671 86.7903 69.0671 86.361C69.0671 85.9223 68.9831 85.549 68.8151 85.241C68.6471 84.933 68.4185 84.695 68.1291 84.527C67.8398 84.359 67.5131 84.275 67.1491 84.275C66.7851 84.275 66.4585 84.359 66.1691 84.527C65.8798 84.695 65.6465 84.933 65.4691 85.241C65.3011 85.549 65.2171 85.9223 65.2171 86.361C65.2171 86.7903 65.3011 87.1636 65.4691 87.481C65.6465 87.789 65.8798 88.027 66.1691 88.195C66.4585 88.363 66.7851 88.447 67.1491 88.447ZM76.379 90.239C75.567 90.239 74.8436 90.0756 74.209 89.749C73.5743 89.413 73.075 88.951 72.711 88.363C72.3563 87.775 72.179 87.1076 72.179 86.361C72.179 85.605 72.3563 84.9376 72.711 84.359C73.075 83.771 73.5743 83.3136 74.209 82.987C74.8436 82.651 75.567 82.483 76.379 82.483C77.1723 82.483 77.863 82.651 78.451 82.987C79.039 83.3136 79.473 83.785 79.753 84.401L78.059 85.311C77.863 84.9563 77.6156 84.695 77.317 84.527C77.0276 84.359 76.7103 84.275 76.365 84.275C75.9916 84.275 75.6556 84.359 75.357 84.527C75.0583 84.695 74.8203 84.933 74.643 85.241C74.475 85.549 74.391 85.9223 74.391 86.361C74.391 86.7996 74.475 87.173 74.643 87.481C74.8203 87.789 75.0583 88.027 75.357 88.195C75.6556 88.363 75.9916 88.447 76.365 88.447C76.7103 88.447 77.0276 88.3676 77.317 88.209C77.6156 88.041 77.863 87.775 78.059 87.411L79.753 88.335C79.473 88.9416 79.039 89.413 78.451 89.749C77.863 90.0756 77.1723 90.239 76.379 90.239ZM85.6304 90.127V88.657L85.4904 88.335V85.703C85.4904 85.2363 85.3458 84.8723 85.0564 84.611C84.7764 84.3496 84.3424 84.219 83.7544 84.219C83.3531 84.219 82.9564 84.2843 82.5644 84.415C82.1818 84.5363 81.8551 84.7043 81.5844 84.919L80.8004 83.393C81.2111 83.1036 81.7058 82.8796 82.2844 82.721C82.8631 82.5623 83.4511 82.483 84.0484 82.483C85.1964 82.483 86.0878 82.7536 86.7224 83.295C87.3571 83.8363 87.6744 84.681 87.6744 85.829V90.127H85.6304ZM83.3344 90.239C82.7464 90.239 82.2424 90.141 81.8224 89.945C81.4024 89.7396 81.0804 89.4643 80.8564 89.119C80.6324 88.7736 80.5204 88.3863 80.5204 87.957C80.5204 87.509 80.6278 87.117 80.8424 86.781C81.0664 86.445 81.4164 86.1836 81.8924 85.997C82.3684 85.801 82.9891 85.703 83.7544 85.703H85.7564V86.977H83.9924C83.4791 86.977 83.1244 87.061 82.9284 87.229C82.7418 87.397 82.6484 87.607 82.6484 87.859C82.6484 88.139 82.7558 88.363 82.9704 88.531C83.1944 88.6896 83.4978 88.769 83.8804 88.769C84.2444 88.769 84.5711 88.685 84.8604 88.517C85.1498 88.3396 85.3598 88.083 85.4904 87.747L85.8264 88.755C85.6678 89.2403 85.3784 89.609 84.9584 89.861C84.5384 90.113 83.9971 90.239 83.3344 90.239ZM89.6511 90.127V79.739H91.8351V90.127H89.6511ZM42.0939 102.483C42.6913 102.483 43.2186 102.604 43.6759 102.847C44.1426 103.08 44.5066 103.444 44.7679 103.939C45.0386 104.424 45.1739 105.05 45.1739 105.815V110.127H42.9899V106.151C42.9899 105.544 42.8639 105.096 42.6119 104.807C42.3599 104.518 42.0053 104.373 41.5479 104.373C41.2306 104.373 40.9459 104.448 40.6939 104.597C40.4419 104.737 40.2459 104.952 40.1059 105.241C39.9659 105.53 39.8959 105.899 39.8959 106.347V110.127H37.7119V106.151C37.7119 105.544 37.5859 105.096 37.3339 104.807C37.0913 104.518 36.7413 104.373 36.2839 104.373C35.9666 104.373 35.6819 104.448 35.4299 104.597C35.1779 104.737 34.9819 104.952 34.8419 105.241C34.7019 105.53 34.6319 105.899 34.6319 106.347V110.127H32.4479V102.595H34.5339V104.653L34.1419 104.051C34.4033 103.538 34.7719 103.15 35.2479 102.889C35.7333 102.618 36.2839 102.483 36.8999 102.483C37.5906 102.483 38.1926 102.66 38.7059 103.015C39.2286 103.36 39.5739 103.892 39.7419 104.611L38.9719 104.401C39.2239 103.813 39.6253 103.346 40.1759 103.001C40.7359 102.656 41.3753 102.483 42.0939 102.483ZM50.9242 110.239C50.0656 110.239 49.3096 110.071 48.6562 109.735C48.0122 109.399 47.5129 108.942 47.1582 108.363C46.8036 107.775 46.6262 107.108 46.6262 106.361C46.6262 105.605 46.7989 104.938 47.1442 104.359C47.4989 103.771 47.9796 103.314 48.5862 102.987C49.1929 102.651 49.8789 102.483 50.6442 102.483C51.3816 102.483 52.0442 102.642 52.6322 102.959C53.2296 103.267 53.7009 103.715 54.0462 104.303C54.3916 104.882 54.5642 105.577 54.5642 106.389C54.5642 106.473 54.5596 106.571 54.5502 106.683C54.5409 106.786 54.5316 106.884 54.5222 106.977H48.4042V105.703H53.3742L52.5342 106.081C52.5342 105.689 52.4549 105.348 52.2962 105.059C52.1376 104.77 51.9182 104.546 51.6382 104.387C51.3582 104.219 51.0316 104.135 50.6582 104.135C50.2849 104.135 49.9536 104.219 49.6642 104.387C49.3842 104.546 49.1649 104.774 49.0062 105.073C48.8476 105.362 48.7682 105.708 48.7682 106.109V106.445C48.7682 106.856 48.8569 107.22 49.0342 107.537C49.2209 107.845 49.4776 108.083 49.8042 108.251C50.1402 108.41 50.5322 108.489 50.9802 108.489C51.3816 108.489 51.7316 108.428 52.0302 108.307C52.3382 108.186 52.6182 108.004 52.8702 107.761L54.0322 109.021C53.6869 109.413 53.2529 109.716 52.7302 109.931C52.2076 110.136 51.6056 110.239 50.9242 110.239ZM60.4332 110.127V108.657L60.2932 108.335V105.703C60.2932 105.236 60.1485 104.872 59.8592 104.611C59.5792 104.35 59.1452 104.219 58.5572 104.219C58.1558 104.219 57.7592 104.284 57.3672 104.415C56.9845 104.536 56.6578 104.704 56.3872 104.919L55.6032 103.393C56.0138 103.104 56.5085 102.88 57.0872 102.721C57.6658 102.562 58.2538 102.483 58.8512 102.483C59.9992 102.483 60.8905 102.754 61.5252 103.295C62.1598 103.836 62.4772 104.681 62.4772 105.829V110.127H60.4332ZM58.1372 110.239C57.5492 110.239 57.0452 110.141 56.6252 109.945C56.2052 109.74 55.8832 109.464 55.6592 109.119C55.4352 108.774 55.3232 108.386 55.3232 107.957C55.3232 107.509 55.4305 107.117 55.6452 106.781C55.8692 106.445 56.2192 106.184 56.6952 105.997C57.1712 105.801 57.7918 105.703 58.5572 105.703H60.5592V106.977H58.7952C58.2818 106.977 57.9272 107.061 57.7312 107.229C57.5445 107.397 57.4512 107.607 57.4512 107.859C57.4512 108.139 57.5585 108.363 57.7732 108.531C57.9972 108.69 58.3005 108.769 58.6832 108.769C59.0472 108.769 59.3738 108.685 59.6632 108.517C59.9525 108.34 60.1625 108.083 60.2932 107.747L60.6292 108.755C60.4705 109.24 60.1812 109.609 59.7612 109.861C59.3412 110.113 58.7998 110.239 58.1372 110.239ZM67.5338 110.239C66.6471 110.239 65.9565 110.015 65.4618 109.567C64.9671 109.11 64.7198 108.433 64.7198 107.537V100.929H66.9038V107.509C66.9038 107.826 66.9878 108.074 67.1558 108.251C67.3238 108.419 67.5525 108.503 67.8418 108.503C68.1871 108.503 68.4811 108.41 68.7238 108.223L69.3118 109.763C69.0878 109.922 68.8171 110.043 68.4998 110.127C68.1918 110.202 67.8698 110.239 67.5338 110.239ZM63.5578 104.443V102.763H68.7798V104.443H63.5578Z" fill="black"/>
<circle cx="49.0024" cy="30.127" r="30" fill="#FFE6D3"/>
<path fill-rule="evenodd" clip-rule="evenodd" d="M45.5303 34.8028H50.2399C50.2405 35.1739 50.2898 35.5328 50.3877 35.8794C50.1804 35.9649 50.0155 36.1291 49.929 36.336C49.8425 36.5429 49.8415 36.7757 49.9262 36.9833L49.962 37.0719C50.0566 37.3031 50.2391 37.4872 50.4694 37.5838C50.6998 37.6805 50.959 37.6816 51.1903 37.5871L51.2948 37.5438C51.6207 37.9224 52.0125 38.2596 52.4562 38.5422C52.2104 39.0009 52.378 39.5783 52.8367 39.8251C53.0568 39.9432 53.3148 39.9691 53.554 39.8971C53.7932 39.825 53.9939 39.6609 54.1121 39.4408L54.1903 39.2957C54.8122 39.4583 55.4542 39.5303 56.0967 39.5096L56.1212 39.6367C56.1421 39.7605 56.1876 39.8789 56.255 39.9849C56.3223 40.0908 56.4102 40.1823 56.5134 40.2538C56.6166 40.3253 56.7331 40.3755 56.856 40.4013C56.9788 40.4272 57.1056 40.4282 57.2289 40.4043C57.3522 40.3805 57.4695 40.3322 57.5738 40.2624C57.6782 40.1925 57.7675 40.1025 57.8366 39.9976C57.9056 39.8928 57.953 39.7752 57.976 39.6517C57.9989 39.5283 57.9969 39.4015 57.9702 39.2788L57.9532 39.1893C58.7736 38.9286 59.5249 38.487 60.1516 37.897L60.4446 41.4094C60.2118 41.4488 60.0023 41.5741 59.8575 41.7607C59.7127 41.9472 59.6433 42.1813 59.663 42.4166C59.6827 42.6519 59.79 42.8712 59.9637 43.0311C60.1374 43.191 60.3648 43.2799 60.6009 43.28H63.4267V26.3255C63.4312 25.0468 63.0103 23.8029 62.2305 22.7896C62.8192 22.9478 63.2298 23.1786 63.5209 23.4583C64.0455 23.9623 64.3686 24.8109 64.3686 26.3255L64.7331 31.4307C64.5108 31.7745 64.3686 32.3133 64.3686 32.919C64.3686 33.9598 64.7896 34.8028 65.3105 34.8028C65.8314 34.8028 66.2524 33.9598 66.2524 32.919C66.2524 32.3133 66.1093 31.7745 65.8879 31.4307L66.2524 26.3255C66.2524 24.5981 65.8917 23.123 64.8264 22.0992C63.7743 21.0885 62.2305 20.7079 60.3306 20.6759C60.259 20.674 58.2989 20.674 58.2462 20.674V20.6806C58.1589 20.6764 58.0716 20.6742 57.9843 20.674H44.1174C42.2948 20.674 40.9196 20.4028 39.7648 20.0448L39.6216 19.8508C40.2527 19.6907 40.8885 19.4345 41.3453 19.0973C42.5406 18.2175 43.2358 16.4477 41.7042 16.6417C41.2596 16.6982 40.9375 16.7095 40.6756 16.7189C40.0361 16.7406 39.7526 16.751 38.9048 17.3754C38.5591 17.6298 38.2559 17.9029 38.0091 18.1733C36.6913 17.1937 34.9365 16.7557 31.8725 16.9064C31.7476 16.9064 31.6278 16.956 31.5395 17.0443C31.4511 17.1326 31.4015 17.2524 31.4015 17.3773C31.4015 17.5022 31.4511 17.622 31.5395 17.7104C31.6278 17.7987 31.7476 17.8483 31.8725 17.8483H33.5086C33.777 18.0216 34.0078 18.1836 34.2122 18.3381L30.8364 22.5579H30.6367C30.343 22.5578 30.0533 22.6264 29.7908 22.7583C29.5283 22.8901 29.3003 23.0815 29.1249 23.3171C28.9496 23.5528 28.8318 23.8262 28.7809 24.1155C28.73 24.4048 28.7475 24.702 28.832 24.9833L29.1146 25.9252C29.231 26.3133 29.4695 26.6534 29.7946 26.8952C30.1197 27.137 30.5141 27.2675 30.9193 27.2675H34.085C34.4834 27.2675 34.8716 27.3938 35.1937 27.6282L37.2565 29.1277C37.3193 29.173 37.383 29.2138 37.4477 29.2502C38.9237 33.0555 40.4807 36.0188 42.2232 37.5099L42.5482 41.4094C42.3154 41.4488 42.1058 41.5741 41.9611 41.7607C41.8163 41.9472 41.7469 42.1813 41.7666 42.4166C41.7862 42.6519 41.8936 42.8712 42.0673 43.0311C42.241 43.191 42.4684 43.2799 42.7045 43.28H45.5303V34.8028ZM54.7705 34.8028H52.1237C52.1237 36.0555 53.4744 37.6285 55.8914 37.6285C56.7871 37.6285 57.5369 37.4119 58.1256 37.0766C56.7786 36.5397 55.7341 35.7409 54.7714 34.8028" fill="black"/>
</svg>
