<svg width="159" height="50" viewBox="0 0 159 50" fill="none" xmlns="http://www.w3.org/2000/svg">
<g filter="url(#filter0_d_341_481)">
<g filter="url(#filter1_di_341_481)">
<rect x="4" width="151" height="42" rx="19" fill="#2A0181" shape-rendering="crispEdges"/>
<path d="M55.68 27V15.8H57.28V25.608H63.344V27H55.68ZM68.4786 27.096C67.6253 27.096 66.868 26.9093 66.2066 26.536C65.5453 26.1627 65.0226 25.6507 64.6386 25C64.2546 24.3387 64.0626 23.592 64.0626 22.76C64.0626 21.9173 64.2546 21.1707 64.6386 20.52C65.0226 19.8693 65.5453 19.3627 66.2066 19C66.868 18.6267 67.6253 18.44 68.4786 18.44C69.3213 18.44 70.0733 18.6267 70.7346 19C71.4066 19.3627 71.9293 19.8693 72.3026 20.52C72.6866 21.16 72.8786 21.9067 72.8786 22.76C72.8786 23.6027 72.6866 24.3493 72.3026 25C71.9293 25.6507 71.4066 26.1627 70.7346 26.536C70.0733 26.9093 69.3213 27.096 68.4786 27.096ZM68.4786 25.752C69.0226 25.752 69.508 25.6293 69.9346 25.384C70.372 25.1387 70.7133 24.792 70.9586 24.344C71.204 23.8853 71.3266 23.3573 71.3266 22.76C71.3266 22.152 71.204 21.6293 70.9586 21.192C70.7133 20.744 70.372 20.3973 69.9346 20.152C69.508 19.9067 69.0226 19.784 68.4786 19.784C67.9346 19.784 67.4493 19.9067 67.0226 20.152C66.596 20.3973 66.2546 20.744 65.9986 21.192C65.7426 21.6293 65.6146 22.152 65.6146 22.76C65.6146 23.3573 65.7426 23.8853 65.9986 24.344C66.2546 24.792 66.596 25.1387 67.0226 25.384C67.4493 25.6293 67.9346 25.752 68.4786 25.752ZM78.7149 30.2C77.9362 30.2 77.1789 30.088 76.4429 29.864C75.7175 29.6507 75.1255 29.3413 74.6669 28.936L75.4029 27.752C75.7975 28.0933 76.2829 28.36 76.8589 28.552C77.4349 28.7547 78.0375 28.856 78.6669 28.856C79.6695 28.856 80.4055 28.6213 80.8749 28.152C81.3442 27.6827 81.5789 26.968 81.5789 26.008V24.216L81.7389 22.536L81.6589 20.84V18.52H83.1149V25.848C83.1149 27.3413 82.7415 28.44 81.9949 29.144C81.2482 29.848 80.1549 30.2 78.7149 30.2ZM78.5229 26.648C77.7015 26.648 76.9655 26.4773 76.3149 26.136C75.6749 25.784 75.1629 25.2987 74.7789 24.68C74.4055 24.0613 74.2189 23.3467 74.2189 22.536C74.2189 21.7147 74.4055 21 74.7789 20.392C75.1629 19.7733 75.6749 19.2933 76.3149 18.952C76.9655 18.6107 77.7015 18.44 78.5229 18.44C79.2482 18.44 79.9095 18.5893 80.5069 18.888C81.1042 19.176 81.5789 19.624 81.9309 20.232C82.2935 20.84 82.4749 21.608 82.4749 22.536C82.4749 23.4533 82.2935 24.216 81.9309 24.824C81.5789 25.432 81.1042 25.8907 80.5069 26.2C79.9095 26.4987 79.2482 26.648 78.5229 26.648ZM78.6989 25.304C79.2642 25.304 79.7655 25.1867 80.2029 24.952C80.6402 24.7173 80.9815 24.392 81.2269 23.976C81.4829 23.56 81.6109 23.08 81.6109 22.536C81.6109 21.992 81.4829 21.512 81.2269 21.096C80.9815 20.68 80.6402 20.36 80.2029 20.136C79.7655 19.9013 79.2642 19.784 78.6989 19.784C78.1335 19.784 77.6269 19.9013 77.1789 20.136C76.7415 20.36 76.3949 20.68 76.1389 21.096C75.8935 21.512 75.7709 21.992 75.7709 22.536C75.7709 23.08 75.8935 23.56 76.1389 23.976C76.3949 24.392 76.7415 24.7173 77.1789 24.952C77.6269 25.1867 78.1335 25.304 78.6989 25.304ZM90.5706 27V15.8H92.1706V27H90.5706ZM99.8278 18.44C100.521 18.44 101.129 18.5733 101.652 18.84C102.185 19.1067 102.601 19.512 102.9 20.056C103.198 20.6 103.348 21.288 103.348 22.12V27H101.812V22.296C101.812 21.4747 101.609 20.856 101.204 20.44C100.809 20.024 100.249 19.816 99.5238 19.816C98.9798 19.816 98.5051 19.9227 98.0998 20.136C97.6944 20.3493 97.3798 20.664 97.1558 21.08C96.9424 21.496 96.8358 22.0133 96.8358 22.632V27H95.2998V18.52H96.7718V20.808L96.5318 20.2C96.8091 19.6453 97.2358 19.2133 97.8118 18.904C98.3878 18.5947 99.0598 18.44 99.8278 18.44Z" fill="white"/>
</g>
</g>
<defs>
<filter id="filter0_d_341_481" x="0" y="0" width="159" height="50" filterUnits="userSpaceOnUse" color-interpolation-filters="sRGB">
<feFlood flood-opacity="0" result="BackgroundImageFix"/>
<feColorMatrix in="SourceAlpha" type="matrix" values="0 0 0 0 0 0 0 0 0 0 0 0 0 0 0 0 0 0 127 0" result="hardAlpha"/>
<feOffset dy="4"/>
<feGaussianBlur stdDeviation="2"/>
<feComposite in2="hardAlpha" operator="out"/>
<feColorMatrix type="matrix" values="0 0 0 0 0 0 0 0 0 0 0 0 0 0 0 0 0 0 0.25 0"/>
<feBlend mode="normal" in2="BackgroundImageFix" result="effect1_dropShadow_341_481"/>
<feBlend mode="normal" in="SourceGraphic" in2="effect1_dropShadow_341_481" result="shape"/>
</filter>
<filter id="filter1_di_341_481" x="0" y="0" width="159" height="50" filterUnits="userSpaceOnUse" color-interpolation-filters="sRGB">
<feFlood flood-opacity="0" result="BackgroundImageFix"/>
<feColorMatrix in="SourceAlpha" type="matrix" values="0 0 0 0 0 0 0 0 0 0 0 0 0 0 0 0 0 0 127 0" result="hardAlpha"/>
<feOffset dy="4"/>
<feGaussianBlur stdDeviation="2"/>
<feComposite in2="hardAlpha" operator="out"/>
<feColorMatrix type="matrix" values="0 0 0 0 0 0 0 0 0 0 0 0 0 0 0 0 0 0 0.25 0"/>
<feBlend mode="normal" in2="BackgroundImageFix" result="effect1_dropShadow_341_481"/>
<feBlend mode="normal" in="SourceGraphic" in2="effect1_dropShadow_341_481" result="shape"/>
<feColorMatrix in="SourceAlpha" type="matrix" values="0 0 0 0 0 0 0 0 0 0 0 0 0 0 0 0 0 0 127 0" result="hardAlpha"/>
<feOffset dy="4"/>
<feGaussianBlur stdDeviation="2"/>
<feComposite in2="hardAlpha" operator="arithmetic" k2="-1" k3="1"/>
<feColorMatrix type="matrix" values="0 0 0 0 1 0 0 0 0 1 0 0 0 0 1 0 0 0 0.32 0"/>
<feBlend mode="normal" in2="shape" result="effect2_innerShadow_341_481"/>
</filter>
</defs>
</svg>
