<svg width="159" height="21" viewBox="0 0 159 21" fill="none" xmlns="http://www.w3.org/2000/svg">
<path d="M0 0.00585938H159L143 21.0059H16.5L0 0.00585938Z" fill="#25026E"/>
<path d="M37.076 15.1499C36.412 15.1499 35.796 15.0419 35.228 14.8259C34.668 14.6099 34.18 14.3059 33.764 13.9139C33.356 13.5219 33.036 13.0619 32.804 12.5339C32.58 12.0059 32.468 11.4299 32.468 10.8059C32.468 10.1819 32.58 9.60586 32.804 9.07786C33.036 8.54986 33.36 8.08986 33.776 7.69786C34.192 7.30586 34.68 7.00186 35.24 6.78586C35.8 6.56986 36.408 6.46186 37.064 6.46186C37.728 6.46186 38.336 6.56986 38.888 6.78586C39.448 7.00186 39.932 7.30586 40.34 7.69786C40.756 8.08986 41.08 8.54986 41.312 9.07786C41.544 9.59786 41.66 10.1739 41.66 10.8059C41.66 11.4299 41.544 12.0099 41.312 12.5459C41.08 13.0739 40.756 13.5339 40.34 13.9259C39.932 14.3099 39.448 14.6099 38.888 14.8259C38.336 15.0419 37.732 15.1499 37.076 15.1499ZM37.064 13.4939C37.44 13.4939 37.784 13.4299 38.096 13.3019C38.416 13.1739 38.696 12.9899 38.936 12.7499C39.176 12.5099 39.36 12.2259 39.488 11.8979C39.624 11.5699 39.692 11.2059 39.692 10.8059C39.692 10.4059 39.624 10.0419 39.488 9.71386C39.36 9.38586 39.176 9.10186 38.936 8.86186C38.704 8.62186 38.428 8.43786 38.108 8.30986C37.788 8.18186 37.44 8.11786 37.064 8.11786C36.688 8.11786 36.34 8.18186 36.02 8.30986C35.708 8.43786 35.432 8.62186 35.192 8.86186C34.952 9.10186 34.764 9.38586 34.628 9.71386C34.5 10.0419 34.436 10.4059 34.436 10.8059C34.436 11.1979 34.5 11.5619 34.628 11.8979C34.764 12.2259 34.948 12.5099 35.18 12.7499C35.42 12.9899 35.7 13.1739 36.02 13.3019C36.34 13.4299 36.688 13.4939 37.064 13.4939ZM46.805 15.1019C46.261 15.1019 45.785 14.9819 45.377 14.7419C44.969 14.5019 44.649 14.1379 44.417 13.6499C44.193 13.1539 44.081 12.5299 44.081 11.7779C44.081 11.0179 44.189 10.3939 44.405 9.90586C44.621 9.41786 44.933 9.05386 45.341 8.81386C45.749 8.57386 46.237 8.45386 46.805 8.45386C47.413 8.45386 47.957 8.59386 48.437 8.87386C48.925 9.14586 49.309 9.52986 49.589 10.0259C49.877 10.5219 50.021 11.1059 50.021 11.7779C50.021 12.4579 49.877 13.0459 49.589 13.5419C49.309 14.0379 48.925 14.4219 48.437 14.6939C47.957 14.9659 47.413 15.1019 46.805 15.1019ZM42.989 17.3339V8.54986H44.777V9.86986L44.741 11.7899L44.861 13.6979V17.3339H42.989ZM46.481 13.5659C46.793 13.5659 47.069 13.4939 47.309 13.3499C47.557 13.2059 47.753 13.0019 47.897 12.7379C48.049 12.4659 48.125 12.1459 48.125 11.7779C48.125 11.4019 48.049 11.0819 47.897 10.8179C47.753 10.5539 47.557 10.3499 47.309 10.2059C47.069 10.0619 46.793 9.98986 46.481 9.98986C46.169 9.98986 45.889 10.0619 45.641 10.2059C45.393 10.3499 45.197 10.5539 45.053 10.8179C44.909 11.0819 44.837 11.4019 44.837 11.7779C44.837 12.1459 44.909 12.4659 45.053 12.7379C45.197 13.0019 45.393 13.2059 45.641 13.3499C45.889 13.4939 46.169 13.5659 46.481 13.5659ZM54.4782 15.1019C53.7422 15.1019 53.0942 14.9579 52.5342 14.6699C51.9822 14.3819 51.5542 13.9899 51.2502 13.4939C50.9462 12.9899 50.7942 12.4179 50.7942 11.7779C50.7942 11.1299 50.9422 10.5579 51.2382 10.0619C51.5422 9.55786 51.9542 9.16586 52.4742 8.88586C52.9942 8.59786 53.5822 8.45386 54.2382 8.45386C54.8702 8.45386 55.4382 8.58986 55.9422 8.86186C56.4542 9.12586 56.8582 9.50986 57.1542 10.0139C57.4502 10.5099 57.5982 11.1059 57.5982 11.8019C57.5982 11.8739 57.5942 11.9579 57.5862 12.0539C57.5782 12.1419 57.5702 12.2259 57.5622 12.3059H52.3182V11.2139H56.5782L55.8582 11.5379C55.8582 11.2019 55.7902 10.9099 55.6542 10.6619C55.5182 10.4139 55.3302 10.2219 55.0902 10.0859C54.8502 9.94186 54.5702 9.86986 54.2502 9.86986C53.9302 9.86986 53.6462 9.94186 53.3982 10.0859C53.1582 10.2219 52.9702 10.4179 52.8342 10.6739C52.6982 10.9219 52.6302 11.2179 52.6302 11.5619V11.8499C52.6302 12.2019 52.7062 12.5139 52.8582 12.7859C53.0182 13.0499 53.2382 13.2539 53.5182 13.3979C53.8062 13.5339 54.1422 13.6019 54.5262 13.6019C54.8702 13.6019 55.1702 13.5499 55.4262 13.4459C55.6902 13.3419 55.9302 13.1859 56.1462 12.9779L57.1422 14.0579C56.8462 14.3939 56.4742 14.6539 56.0262 14.8379C55.5782 15.0139 55.0622 15.1019 54.4782 15.1019ZM62.7685 8.45386C63.2805 8.45386 63.7365 8.55786 64.1365 8.76586C64.5445 8.96586 64.8645 9.27786 65.0965 9.70186C65.3285 10.1179 65.4445 10.6539 65.4445 11.3099V15.0059H63.5725V11.5979C63.5725 11.0779 63.4565 10.6939 63.2245 10.4459C63.0005 10.1979 62.6805 10.0739 62.2645 10.0739C61.9685 10.0739 61.7005 10.1379 61.4605 10.2659C61.2285 10.3859 61.0445 10.5739 60.9085 10.8299C60.7805 11.0859 60.7165 11.4139 60.7165 11.8139V15.0059H58.8445V8.54986H60.6325V10.3379L60.2965 9.79786C60.5285 9.36586 60.8605 9.03386 61.2925 8.80186C61.7245 8.56986 62.2165 8.45386 62.7685 8.45386ZM67.1413 15.0059V8.54986H69.0133V15.0059H67.1413ZM68.0773 7.64986C67.7333 7.64986 67.4533 7.54986 67.2373 7.34986C67.0213 7.14986 66.9133 6.90186 66.9133 6.60586C66.9133 6.30986 67.0213 6.06186 67.2373 5.86186C67.4533 5.66186 67.7333 5.56186 68.0773 5.56186C68.4213 5.56186 68.7013 5.65786 68.9173 5.84986C69.1333 6.03386 69.2413 6.27386 69.2413 6.56986C69.2413 6.88186 69.1333 7.14186 68.9173 7.34986C68.7093 7.54986 68.4293 7.64986 68.0773 7.64986ZM74.6747 8.45386C75.1867 8.45386 75.6427 8.55786 76.0427 8.76586C76.4507 8.96586 76.7707 9.27786 77.0027 9.70186C77.2347 10.1179 77.3507 10.6539 77.3507 11.3099V15.0059H75.4787V11.5979C75.4787 11.0779 75.3627 10.6939 75.1307 10.4459C74.9067 10.1979 74.5867 10.0739 74.1707 10.0739C73.8747 10.0739 73.6067 10.1379 73.3667 10.2659C73.1347 10.3859 72.9507 10.5739 72.8147 10.8299C72.6867 11.0859 72.6227 11.4139 72.6227 11.8139V15.0059H70.7507V8.54986H72.5387V10.3379L72.2027 9.79786C72.4347 9.36586 72.7667 9.03386 73.1987 8.80186C73.6307 8.56986 74.1227 8.45386 74.6747 8.45386ZM82.1305 17.4299C81.5225 17.4299 80.9345 17.3539 80.3665 17.2019C79.8065 17.0579 79.3385 16.8379 78.9625 16.5419L79.7065 15.1979C79.9785 15.4219 80.3225 15.5979 80.7385 15.7259C81.1625 15.8619 81.5785 15.9299 81.9865 15.9299C82.6505 15.9299 83.1305 15.7819 83.4265 15.4859C83.7305 15.1899 83.8825 14.7499 83.8825 14.1659V13.1939L84.0025 11.5739L83.9785 9.94186V8.54986H85.7545V13.9259C85.7545 15.1259 85.4425 16.0099 84.8185 16.5779C84.1945 17.1459 83.2985 17.4299 82.1305 17.4299ZM81.8425 14.6939C81.2425 14.6939 80.6985 14.5659 80.2105 14.3099C79.7305 14.0459 79.3425 13.6819 79.0465 13.2179C78.7585 12.7459 78.6145 12.1979 78.6145 11.5739C78.6145 10.9419 78.7585 10.3939 79.0465 9.92986C79.3425 9.45786 79.7305 9.09386 80.2105 8.83786C80.6985 8.58186 81.2425 8.45386 81.8425 8.45386C82.3865 8.45386 82.8665 8.56586 83.2825 8.78986C83.6985 9.00586 84.0225 9.34586 84.2545 9.80986C84.4865 10.2659 84.6025 10.8539 84.6025 11.5739C84.6025 12.2859 84.4865 12.8739 84.2545 13.3379C84.0225 13.7939 83.6985 14.1339 83.2825 14.3579C82.8665 14.5819 82.3865 14.6939 81.8425 14.6939ZM82.2145 13.1579C82.5425 13.1579 82.8345 13.0939 83.0905 12.9659C83.3465 12.8299 83.5465 12.6419 83.6905 12.4019C83.8345 12.1619 83.9065 11.8859 83.9065 11.5739C83.9065 11.2539 83.8345 10.9779 83.6905 10.7459C83.5465 10.5059 83.3465 10.3219 83.0905 10.1939C82.8345 10.0579 82.5425 9.98986 82.2145 9.98986C81.8865 9.98986 81.5945 10.0579 81.3385 10.1939C81.0825 10.3219 80.8785 10.5059 80.7265 10.7459C80.5825 10.9779 80.5105 11.2539 80.5105 11.5739C80.5105 11.8859 80.5825 12.1619 80.7265 12.4019C80.8785 12.6419 81.0825 12.8299 81.3385 12.9659C81.5945 13.0939 81.8865 13.1579 82.2145 13.1579ZM96.7873 6.60586H98.7313V15.0059H96.7873V6.60586ZM92.9713 15.0059H91.0273V6.60586H92.9713V15.0059ZM96.9313 11.5619H92.8273V9.91786H96.9313V11.5619ZM103.659 15.1019C102.971 15.1019 102.359 14.9579 101.823 14.6699C101.295 14.3819 100.875 13.9899 100.563 13.4939C100.259 12.9899 100.107 12.4179 100.107 11.7779C100.107 11.1299 100.259 10.5579 100.563 10.0619C100.875 9.55786 101.295 9.16586 101.823 8.88586C102.359 8.59786 102.971 8.45386 103.659 8.45386C104.339 8.45386 104.947 8.59786 105.483 8.88586C106.019 9.16586 106.439 9.55386 106.743 10.0499C107.047 10.5459 107.199 11.1219 107.199 11.7779C107.199 12.4179 107.047 12.9899 106.743 13.4939C106.439 13.9899 106.019 14.3819 105.483 14.6699C104.947 14.9579 104.339 15.1019 103.659 15.1019ZM103.659 13.5659C103.971 13.5659 104.251 13.4939 104.499 13.3499C104.747 13.2059 104.943 13.0019 105.087 12.7379C105.231 12.4659 105.303 12.1459 105.303 11.7779C105.303 11.4019 105.231 11.0819 105.087 10.8179C104.943 10.5539 104.747 10.3499 104.499 10.2059C104.251 10.0619 103.971 9.98986 103.659 9.98986C103.347 9.98986 103.067 10.0619 102.819 10.2059C102.571 10.3499 102.371 10.5539 102.219 10.8179C102.075 11.0819 102.003 11.4019 102.003 11.7779C102.003 12.1459 102.075 12.4659 102.219 12.7379C102.371 13.0019 102.571 13.2059 102.819 13.3499C103.067 13.4939 103.347 13.5659 103.659 13.5659ZM111.174 15.1019C110.638 15.1019 110.158 14.9979 109.734 14.7899C109.318 14.5819 108.994 14.2659 108.762 13.8419C108.53 13.4099 108.414 12.8619 108.414 12.1979V8.54986H110.286V11.9219C110.286 12.4579 110.398 12.8539 110.622 13.1099C110.854 13.3579 111.178 13.4819 111.594 13.4819C111.882 13.4819 112.138 13.4219 112.362 13.3019C112.586 13.1739 112.762 12.9819 112.89 12.7259C113.018 12.4619 113.082 12.1339 113.082 11.7419V8.54986H114.954V15.0059H113.178V13.2299L113.502 13.7459C113.286 14.1939 112.966 14.5339 112.542 14.7659C112.126 14.9899 111.67 15.1019 111.174 15.1019ZM116.688 15.0059V8.54986H118.476V10.3739L118.224 9.84586C118.416 9.38986 118.724 9.04586 119.148 8.81386C119.572 8.57386 120.088 8.45386 120.696 8.45386V10.1819C120.616 10.1739 120.544 10.1699 120.48 10.1699C120.416 10.1619 120.348 10.1579 120.276 10.1579C119.764 10.1579 119.348 10.3059 119.028 10.6019C118.716 10.8899 118.56 11.3419 118.56 11.9579V15.0059H116.688ZM124.028 15.1019C123.476 15.1019 122.944 15.0379 122.432 14.9099C121.928 14.7739 121.528 14.6059 121.232 14.4059L121.856 13.0619C122.152 13.2459 122.5 13.3979 122.9 13.5179C123.308 13.6299 123.708 13.6859 124.1 13.6859C124.532 13.6859 124.836 13.6339 125.012 13.5299C125.196 13.4259 125.288 13.2819 125.288 13.0979C125.288 12.9459 125.216 12.8339 125.072 12.7619C124.936 12.6819 124.752 12.6219 124.52 12.5819C124.288 12.5419 124.032 12.5019 123.752 12.4619C123.48 12.4219 123.204 12.3699 122.924 12.3059C122.644 12.2339 122.388 12.1299 122.156 11.9939C121.924 11.8579 121.736 11.6739 121.592 11.4419C121.456 11.2099 121.388 10.9099 121.388 10.5419C121.388 10.1339 121.504 9.77386 121.736 9.46186C121.976 9.14986 122.32 8.90586 122.768 8.72986C123.216 8.54586 123.752 8.45386 124.376 8.45386C124.816 8.45386 125.264 8.50186 125.72 8.59786C126.176 8.69386 126.556 8.83386 126.86 9.01786L126.236 10.3499C125.924 10.1659 125.608 10.0419 125.288 9.97786C124.976 9.90586 124.672 9.86986 124.376 9.86986C123.96 9.86986 123.656 9.92586 123.464 10.0379C123.272 10.1499 123.176 10.2939 123.176 10.4699C123.176 10.6299 123.244 10.7499 123.38 10.8299C123.524 10.9099 123.712 10.9739 123.944 11.0219C124.176 11.0699 124.428 11.1139 124.7 11.1539C124.98 11.1859 125.26 11.2379 125.54 11.3099C125.82 11.3819 126.072 11.4859 126.296 11.6219C126.528 11.7499 126.716 11.9299 126.86 12.1619C127.004 12.3859 127.076 12.6819 127.076 13.0499C127.076 13.4499 126.956 13.8059 126.716 14.1179C126.476 14.4219 126.128 14.6619 125.672 14.8379C125.224 15.0139 124.676 15.1019 124.028 15.1019Z" fill="white"/>
</svg>
